<svg width="179" height="51" viewBox="0 0 179 51" fill="none" xmlns="http://www.w3.org/2000/svg">
<path d="M164.629 16.8636H167.699V21.5746L167.512 23.6605H167.699C168.027 23.1136 168.496 22.6683 169.105 22.3246C169.73 21.9652 170.426 21.7855 171.191 21.7855C172.676 21.7855 173.77 22.223 174.473 23.098C175.191 23.973 175.551 25.1683 175.551 26.684V33.6449H172.48V27.059C172.48 26.2621 172.293 25.6605 171.918 25.2543C171.543 24.8324 171.02 24.6215 170.348 24.6215C169.926 24.6215 169.551 24.7152 169.223 24.9027C168.895 25.0746 168.613 25.3168 168.379 25.6293C168.16 25.9418 167.988 26.309 167.863 26.7308C167.754 27.1371 167.699 27.5746 167.699 28.0433V33.6449H164.629V16.8636Z" fill="white"/>
<path d="M163.459 30.7152C162.959 31.684 162.256 32.4808 161.35 33.1058C160.459 33.7152 159.342 34.0199 157.998 34.0199C157.107 34.0199 156.287 33.8715 155.537 33.5746C154.803 33.2621 154.162 32.8324 153.615 32.2855C153.084 31.7386 152.662 31.098 152.35 30.3636C152.053 29.6136 151.904 28.7933 151.904 27.9027C151.904 27.0121 152.053 26.1918 152.35 25.4418C152.662 24.6918 153.084 24.0511 153.615 23.5199C154.162 22.973 154.803 22.5511 155.537 22.2543C156.287 21.9418 157.107 21.7855 157.998 21.7855C159.326 21.7855 160.443 22.0902 161.35 22.6996C162.256 23.309 162.92 24.098 163.342 25.0668L160.529 26.2386C160.264 25.7074 159.92 25.309 159.498 25.0433C159.092 24.7621 158.576 24.6215 157.951 24.6215C157.545 24.6215 157.162 24.6996 156.803 24.8558C156.443 25.0121 156.123 25.2308 155.842 25.5121C155.576 25.7933 155.365 26.1371 155.209 26.5433C155.053 26.9496 154.975 27.4027 154.975 27.9027C154.975 28.4027 155.053 28.8558 155.209 29.2621C155.365 29.6683 155.576 30.0121 155.842 30.2933C156.123 30.5746 156.443 30.7933 156.803 30.9496C157.162 31.1058 157.545 31.184 157.951 31.184C158.592 31.184 159.131 31.0433 159.568 30.7621C160.021 30.4652 160.381 30.0433 160.646 29.4965L163.459 30.7152Z" fill="white"/>
<path d="M151.001 30.8793C150.47 31.8168 149.751 32.5746 148.845 33.1527C147.954 33.7308 146.86 34.0199 145.563 34.0199C144.688 34.0199 143.876 33.8715 143.126 33.5746C142.392 33.2621 141.751 32.8324 141.204 32.2855C140.657 31.7386 140.228 31.098 139.915 30.3636C139.618 29.6136 139.47 28.7933 139.47 27.9027C139.47 27.0746 139.618 26.2933 139.915 25.559C140.212 24.809 140.626 24.1605 141.157 23.6136C141.688 23.0511 142.313 22.6058 143.032 22.2777C143.767 21.9496 144.571 21.7855 145.446 21.7855C146.368 21.7855 147.188 21.9418 147.907 22.2543C148.626 22.5511 149.228 22.973 149.712 23.5199C150.196 24.0511 150.563 24.684 150.813 25.4183C151.063 26.1527 151.188 26.9496 151.188 27.809C151.188 27.9183 151.188 28.0121 151.188 28.0902C151.173 28.184 151.165 28.2699 151.165 28.348C151.149 28.4261 151.142 28.5121 151.142 28.6058H142.493C142.556 29.0746 142.681 29.4808 142.868 29.8246C143.071 30.1527 143.313 30.434 143.595 30.6683C143.892 30.8871 144.212 31.0511 144.556 31.1605C144.899 31.2543 145.251 31.3011 145.61 31.3011C146.313 31.3011 146.892 31.1449 147.345 30.8324C147.813 30.5043 148.181 30.098 148.446 29.6136L151.001 30.8793ZM148.212 26.4261C148.196 26.223 148.126 25.9965 148.001 25.7465C147.892 25.4965 147.72 25.2621 147.485 25.0433C147.267 24.8246 146.985 24.6449 146.642 24.5043C146.313 24.3636 145.915 24.2933 145.446 24.2933C144.79 24.2933 144.212 24.4808 143.712 24.8558C143.212 25.2308 142.86 25.7543 142.657 26.4261H148.212Z" fill="white"/>
<path d="M132.979 33.6449V19.8636H128.291V16.8636H140.83V19.8636H136.143V33.6449H132.979Z" fill="white"/>
<path d="M127.596 30.8793C127.064 31.8168 126.346 32.5746 125.439 33.1527C124.549 33.7308 123.455 34.0199 122.158 34.0199C121.283 34.0199 120.471 33.8715 119.721 33.5746C118.986 33.2621 118.346 32.8324 117.799 32.2855C117.252 31.7386 116.822 31.098 116.51 30.3636C116.213 29.6136 116.064 28.7933 116.064 27.9027C116.064 27.0746 116.213 26.2933 116.51 25.559C116.807 24.809 117.221 24.1605 117.752 23.6136C118.283 23.0511 118.908 22.6058 119.627 22.2777C120.361 21.9496 121.166 21.7855 122.041 21.7855C122.963 21.7855 123.783 21.9418 124.502 22.2543C125.221 22.5511 125.822 22.973 126.307 23.5199C126.791 24.0511 127.158 24.684 127.408 25.4183C127.658 26.1527 127.783 26.9496 127.783 27.809C127.783 27.9183 127.783 28.0121 127.783 28.0902C127.768 28.184 127.76 28.2699 127.76 28.348C127.744 28.4261 127.736 28.5121 127.736 28.6058H119.088C119.15 29.0746 119.275 29.4808 119.463 29.8246C119.666 30.1527 119.908 30.434 120.189 30.6683C120.486 30.8871 120.807 31.0511 121.15 31.1605C121.494 31.2543 121.846 31.3011 122.205 31.3011C122.908 31.3011 123.486 31.1449 123.939 30.8324C124.408 30.5043 124.775 30.098 125.041 29.6136L127.596 30.8793ZM124.807 26.4261C124.791 26.223 124.721 25.9965 124.596 25.7465C124.486 25.4965 124.314 25.2621 124.08 25.0433C123.861 24.8246 123.58 24.6449 123.236 24.5043C122.908 24.3636 122.51 24.2933 122.041 24.2933C121.385 24.2933 120.807 24.4808 120.307 24.8558C119.807 25.2308 119.455 25.7543 119.252 26.4261H124.807Z" fill="white"/>
<path d="M108.59 22.1605H111.473V23.7543H111.66C111.801 23.473 111.988 23.2152 112.223 22.9808C112.457 22.7465 112.715 22.5433 112.996 22.3715C113.293 22.1996 113.605 22.0668 113.934 21.973C114.277 21.8793 114.613 21.8324 114.941 21.8324C115.348 21.8324 115.691 21.8715 115.973 21.9496C116.27 22.0277 116.52 22.1293 116.723 22.2543L115.902 25.0433C115.715 24.9496 115.504 24.8793 115.27 24.8324C115.051 24.7699 114.777 24.7386 114.449 24.7386C114.027 24.7386 113.645 24.8246 113.301 24.9965C112.957 25.1527 112.66 25.3793 112.41 25.6761C112.176 25.973 111.988 26.3246 111.848 26.7308C111.723 27.1215 111.66 27.5511 111.66 28.0199V33.6449H108.59V22.1605Z" fill="white"/>
<path d="M103.779 32.1449H103.592C103.232 32.723 102.748 33.184 102.139 33.5277C101.529 33.8558 100.834 34.0199 100.053 34.0199C98.5996 34.0199 97.5137 33.5746 96.7949 32.684C96.0918 31.7933 95.7402 30.6058 95.7402 29.1215V22.1605H98.8105V28.7465C98.8105 29.5746 98.9902 30.1918 99.3496 30.598C99.7246 30.9886 100.264 31.184 100.967 31.184C101.389 31.184 101.756 31.098 102.068 30.9261C102.396 30.7386 102.67 30.4965 102.889 30.1996C103.123 29.8871 103.295 29.5277 103.404 29.1215C103.529 28.6996 103.592 28.2543 103.592 27.7855V22.1605H106.662V33.6449H103.779V32.1449Z" fill="white"/>
<path d="M88.3955 24.7855H86.3799V22.1605H88.3955V18.6449H91.4658V22.1605H94.2783V24.7855H91.4658V29.2387C91.4658 29.5043 91.4893 29.7543 91.5361 29.9886C91.5986 30.2074 91.708 30.3949 91.8643 30.5512C92.083 30.8012 92.3955 30.9262 92.8018 30.9262C93.0674 30.9262 93.2783 30.9027 93.4346 30.8558C93.5908 30.7933 93.7393 30.7152 93.8799 30.6215L94.7471 33.3168C94.3877 33.4887 93.9971 33.6137 93.5752 33.6918C93.1689 33.7855 92.7158 33.8324 92.2158 33.8324C91.6377 33.8324 91.1143 33.7465 90.6455 33.5746C90.1924 33.3871 89.8096 33.1371 89.4971 32.8246C88.7627 32.1215 88.3955 31.1215 88.3955 29.8246V24.7855Z" fill="white"/>
<path d="M82.2061 32.1449H82.0186C81.6592 32.723 81.1748 33.184 80.5654 33.5277C79.9561 33.8558 79.2607 34.0199 78.4795 34.0199C77.0264 34.0199 75.9404 33.5746 75.2217 32.684C74.5186 31.7933 74.167 30.6058 74.167 29.1215V22.1605H77.2373V28.7465C77.2373 29.5746 77.417 30.1918 77.7764 30.598C78.1514 30.9886 78.6904 31.184 79.3936 31.184C79.8154 31.184 80.1826 31.098 80.4951 30.9261C80.8232 30.7386 81.0967 30.4965 81.3154 30.1996C81.5498 29.8871 81.7217 29.5277 81.8311 29.1215C81.9561 28.6996 82.0186 28.2543 82.0186 27.7855V22.1605H85.0889V33.6449H82.2061V32.1449Z" fill="white"/>
<path d="M62.7275 16.8636H73.3682V19.8636H65.8916V23.9418H72.6182V26.9418H65.8916V33.6449H62.7275V16.8636Z" fill="white"/>
<path d="M33.334 50.5V42.1666C37.9451 42.1666 41.6673 38.4444 41.6673 33.8333H50.0007C50.0007 43.0555 42.5284 50.5 33.334 50.5Z" fill="#FFD11A"/>
<path d="M33.3337 50.5V42.1666C28.7225 42.1666 25.0003 38.4444 25.0003 33.8333H16.667C16.667 43.0555 24.1392 50.5 33.3337 50.5Z" fill="#FFD11A"/>
<path d="M0 33.8334H8.33333C8.33333 38.4445 12.0556 42.1667 16.6667 42.1667V50.5C7.47222 50.5 0 43.0556 0 33.8334Z" fill="#FFD11A"/>
<path d="M0 33.8334H8.33333C8.33333 29.2222 12.0556 25.5 16.6667 25.5V17.1667C7.47222 17.1667 0 24.6389 0 33.8334Z" fill="#FFD11A"/>
<path d="M16.6667 0.5V8.83333C12.0556 8.83333 8.33333 12.5556 8.33333 17.1667H0C0 7.97222 7.47222 0.5 16.6667 0.5Z" fill="#FFD11A"/>
<path d="M16.667 0.5V8.83333C21.2781 8.83333 25.0003 12.5556 25.0003 17.1667H33.3337C33.3337 7.97222 25.8614 0.5 16.667 0.5Z" fill="#FFD11A"/>
<path d="M49.9997 17.1667H41.6663C41.6663 12.5556 37.9441 8.83333 33.333 8.83333V0.5C42.5275 0.5 49.9997 7.97222 49.9997 17.1667Z" fill="#FFD11A"/>
<path d="M49.9997 17.1667H41.6663C41.6663 21.7778 37.9441 25.5 33.333 25.5V33.8334C42.5275 33.8334 49.9997 26.3889 49.9997 17.1667Z" fill="#FFD11A"/>
</svg>
